<svg width="526" height="84" viewBox="0 0 526 84" fill="none" xmlns="http://www.w3.org/2000/svg">
<path d="M475.162 58.1491V27.4514H483.524L483.81 32.9495H484.211C485.089 30.9259 486.445 29.4177 488.278 28.425C490.11 27.3941 492.115 26.8787 494.291 26.8787C495.933 26.8787 497.441 27.1268 498.816 27.6232C500.19 28.0814 501.374 28.8259 502.367 29.8568C503.397 30.8877 504.199 32.2431 504.772 33.9231C505.345 35.5649 505.631 37.5694 505.631 39.9367V58.1491H496.983V41.7694C496.983 40.013 496.773 38.543 496.353 37.3594C495.933 36.1758 495.284 35.2976 494.406 34.7249C493.528 34.1522 492.382 33.8658 490.969 33.8658C489.442 33.8658 488.144 34.2095 487.075 34.8967C486.044 35.584 485.242 36.5003 484.669 37.6458C484.097 38.7912 483.81 40.0512 483.81 41.4257V58.1491H475.162Z" fill="white"/>
<path d="M450.838 58.6646C447.783 58.6646 445.301 57.8819 443.392 56.3164C441.483 54.7128 440.529 52.5938 440.529 49.9592C440.529 48.2029 440.853 46.7138 441.502 45.492C442.19 44.2321 443.106 43.2202 444.251 42.4566C445.435 41.6548 446.81 41.0821 448.375 40.7385C449.941 40.3948 451.62 40.223 453.415 40.223H460.689V38.0467C460.689 37.054 460.498 36.2331 460.116 35.584C459.734 34.8967 459.142 34.3622 458.34 33.9804C457.577 33.5986 456.584 33.4077 455.362 33.4077C454.179 33.4077 453.167 33.5795 452.327 33.9231C451.487 34.2286 450.838 34.6867 450.38 35.2976C449.96 35.9085 449.731 36.6531 449.692 37.5312H441.617C441.655 34.2095 442.915 31.6131 445.397 29.7423C447.917 27.8332 451.372 26.8787 455.763 26.8787C457.825 26.8787 459.677 27.0887 461.319 27.5087C462.998 27.9286 464.43 28.6159 465.614 29.5704C466.836 30.4868 467.752 31.6704 468.363 33.1213C469.012 34.5722 469.337 36.3285 469.337 38.3903V50.9329C469.337 51.5819 469.432 52.0401 469.623 52.3074C469.852 52.5747 470.196 52.7083 470.654 52.7083C470.921 52.7083 471.169 52.6701 471.398 52.5938C471.666 52.5174 471.895 52.4028 472.086 52.2501V57.4619C471.551 57.8819 470.826 58.1873 469.909 58.3782C469.031 58.5691 468.191 58.6646 467.389 58.6646C466.397 58.6646 465.499 58.55 464.698 58.3209C463.934 58.0919 463.285 57.7673 462.75 57.3473C462.254 56.8891 461.872 56.3355 461.605 55.6864C461.338 55.0374 461.204 54.3119 461.204 53.5101C461.204 53.281 461.204 53.0519 461.204 52.8228C461.204 52.5556 461.204 52.3074 461.204 52.0783L462.292 53.3956H460.86C460.326 54.961 459.142 56.2401 457.31 57.2328C455.477 58.1873 453.32 58.6646 450.838 58.6646ZM454.274 52.4219C456.259 52.4219 457.825 51.9829 458.97 51.1047C460.116 50.1883 460.689 48.8902 460.689 47.2102V44.9193H455.019C453.759 44.9193 452.69 45.0529 451.811 45.3202C450.971 45.5875 450.322 46.0075 449.864 46.5802C449.444 47.1529 449.234 47.8784 449.234 48.7565C449.234 49.9402 449.654 50.8565 450.494 51.5056C451.372 52.1165 452.632 52.4219 454.274 52.4219Z" fill="white"/>
<path d="M427.788 58.1492V27.4514H436.436V58.1492H427.788ZM427.788 23.4997V16.3979H436.436V23.4997H427.788Z" fill="white"/>
<path d="M409.018 58.6646C406.612 58.6646 404.436 58.3019 402.489 57.5764C400.541 56.8128 398.88 55.7246 397.506 54.3119C396.131 52.8992 395.062 51.2192 394.299 49.272C393.573 47.3247 393.21 45.1484 393.21 42.743C393.21 39.5358 393.86 36.7485 395.158 34.3813C396.494 31.9759 398.365 30.1241 400.77 28.8259C403.214 27.5277 406.058 26.8787 409.304 26.8787C412.091 26.8787 414.554 27.375 416.692 28.3677C418.83 29.3604 420.529 30.735 421.789 32.4913C423.087 34.2476 423.775 36.2903 423.851 38.6194H415.432C415.241 37.5885 414.84 36.7294 414.229 36.0422C413.657 35.3167 412.931 34.7822 412.053 34.4386C411.213 34.0567 410.239 33.8658 409.132 33.8658C407.605 33.8658 406.288 34.2476 405.18 35.0113C404.111 35.7367 403.309 36.7676 402.775 38.104C402.24 39.4403 401.973 41.0057 401.973 42.8003C401.973 44.7857 402.259 46.4466 402.832 47.7829C403.443 49.0811 404.283 50.0738 405.352 50.7611C406.421 51.4101 407.662 51.7347 409.075 51.7347C410.297 51.7347 411.366 51.5247 412.282 51.1047C413.198 50.6847 413.924 50.112 414.458 49.3865C415.031 48.6229 415.375 47.7447 415.489 46.752H423.965C423.851 49.1574 423.125 51.2574 421.789 53.0519C420.453 54.8464 418.677 56.2401 416.463 57.2328C414.287 58.1873 411.805 58.6646 409.018 58.6646Z" fill="white"/>
<path d="M380.469 58.1492V27.4514H389.118V58.1492H380.469ZM380.469 23.4997V16.3979H389.118V23.4997H380.469Z" fill="white"/>
<path d="M369.559 58.1491C367.573 58.1491 365.989 57.8628 364.805 57.2901C363.622 56.6792 362.782 55.8201 362.285 54.7128C361.827 53.5674 361.598 52.2119 361.598 50.6465V34.324H356.043V27.4514H361.598V19.2042L370.189 18.1733V27.4514H376.66V34.324H370.189V48.7565C370.189 49.6729 370.399 50.2838 370.819 50.5892C371.239 50.8947 371.869 51.0474 372.709 51.0474H376.66V58.1491H369.559Z" fill="white"/>
<path d="M344.504 58.1492V27.4514H353.152V58.1492H344.504ZM344.504 23.4997V16.3979H353.152V23.4997H344.504Z" fill="white"/>
<path d="M329.766 58.1492V16.3979H338.414V58.1492H329.766Z" fill="white"/>
<path d="M309.77 58.7218C307.364 58.7218 305.169 58.3591 303.184 57.6337C301.236 56.9082 299.556 55.8583 298.144 54.4837C296.731 53.1092 295.643 51.4483 294.879 49.5011C294.115 47.5156 293.734 45.282 293.734 42.8003C293.734 39.593 294.364 36.8058 295.624 34.4386C296.922 32.0713 298.774 30.2195 301.179 28.8832C303.584 27.5468 306.448 26.8787 309.77 26.8787C312.175 26.8787 314.352 27.2414 316.299 27.9668C318.246 28.6923 319.926 29.7423 321.339 31.1168C322.751 32.4913 323.84 34.1522 324.603 36.0994C325.367 38.0467 325.749 40.2803 325.749 42.8003C325.749 45.9693 325.1 48.7565 323.801 51.162C322.541 53.5292 320.709 55.381 318.303 56.7173C315.936 58.0537 313.092 58.7218 309.77 58.7218ZM309.77 51.7347C311.221 51.7347 312.481 51.4101 313.55 50.7611C314.657 50.0738 315.497 49.062 316.07 47.7256C316.681 46.3893 316.986 44.7475 316.986 42.8003C316.986 41.3112 316.814 40.013 316.471 38.9058C316.165 37.7985 315.688 36.8631 315.039 36.0994C314.428 35.3358 313.664 34.7631 312.748 34.3813C311.87 33.9995 310.877 33.8086 309.77 33.8086C308.281 33.8086 306.983 34.1522 305.875 34.8395C304.806 35.5267 303.966 36.5385 303.355 37.8749C302.783 39.173 302.496 40.8148 302.496 42.8003C302.496 44.2893 302.649 45.5875 302.954 46.6947C303.298 47.802 303.794 48.7374 304.443 49.5011C305.093 50.2265 305.856 50.7801 306.734 51.162C307.651 51.5438 308.663 51.7347 309.77 51.7347Z" fill="white"/>
<path d="M258.957 67.7135V27.4514H267.261L267.605 32.6631H268.063C268.788 30.945 270.029 29.5514 271.786 28.4823C273.542 27.4132 275.661 26.8787 278.143 26.8787C280.052 26.8787 281.789 27.2223 283.355 27.9096C284.92 28.5968 286.275 29.6086 287.421 30.945C288.566 32.2813 289.444 33.9422 290.055 35.9276C290.666 37.913 290.972 40.2039 290.972 42.8003C290.972 46.2748 290.437 49.1956 289.368 51.5629C288.299 53.8919 286.791 55.6673 284.844 56.8891C282.934 58.1109 280.701 58.7218 278.143 58.7218C276.539 58.7218 275.069 58.4928 273.733 58.0346C272.396 57.5382 271.251 56.851 270.296 55.9728C269.342 55.0946 268.597 54.0637 268.063 52.8801H267.605V67.7135H258.957ZM274.993 51.7919C276.444 51.7919 277.704 51.4674 278.773 50.8183C279.842 50.1692 280.663 49.1765 281.235 47.8402C281.846 46.5038 282.152 44.8239 282.152 42.8003C282.152 40.7385 281.846 39.0585 281.235 37.7603C280.663 36.424 279.842 35.4313 278.773 34.7822C277.704 34.1331 276.444 33.8086 274.993 33.8086C273.389 33.8086 272.034 34.1713 270.926 34.8967C269.857 35.6222 269.056 36.5576 268.521 37.7031C267.987 38.8485 267.719 40.0894 267.719 41.4257V44.1175C267.719 45.1102 267.872 46.0648 268.177 46.9811C268.483 47.8975 268.922 48.7184 269.495 49.4438C270.106 50.1692 270.869 50.742 271.786 51.162C272.702 51.5819 273.771 51.7919 274.993 51.7919Z" fill="white"/>
<path d="M224.453 67.7135V62.7309H227.775C228.768 62.7309 229.589 62.5973 230.238 62.33C230.925 62.1009 231.498 61.7191 231.956 61.1846C232.452 60.65 232.853 59.9628 233.159 59.1228L234.991 54.7128V57.2328L222.048 27.8523H228.691L235.85 46.0648L237.282 49.8447H237.569L238.943 46.0648L245.701 27.8523H252.116L238.829 60.7264C238.179 62.4445 237.378 63.8191 236.423 64.85C235.469 65.8809 234.361 66.6063 233.101 67.0263C231.841 67.4845 230.371 67.7135 228.691 67.7135H224.453Z" fill="white"/>
<path d="M205.558 58.1494V27.8526H210.942L211.285 33.2361H211.514C212.163 31.3271 213.271 29.8953 214.836 28.9407C216.44 27.948 218.253 27.4517 220.277 27.4517C220.697 27.4517 221.06 27.4708 221.365 27.5089C221.709 27.5089 222.014 27.528 222.282 27.5662V33.2361C222.014 33.1979 221.69 33.1789 221.308 33.1789C220.964 33.1407 220.602 33.1216 220.22 33.1216C218.463 33.1216 216.955 33.427 215.695 34.0379C214.435 34.6488 213.443 35.5461 212.717 36.7297C212.03 37.8751 211.648 39.3069 211.572 41.0251V58.1494H205.558Z" fill="white"/>
<path d="M186.814 58.6648C183.722 58.6648 181.068 58.0348 178.854 56.7748C176.639 55.4766 174.94 53.663 173.756 51.3339C172.611 49.0049 172.038 46.2749 172.038 43.1441C172.038 39.9368 172.611 37.1496 173.756 34.7824C174.94 32.4151 176.62 30.6015 178.796 29.3415C180.973 28.0434 183.569 27.3943 186.585 27.3943C189.869 27.3943 192.599 28.1006 194.775 29.5133C196.951 30.9261 198.536 32.8924 199.529 35.4124C200.521 37.9323 200.903 40.8532 200.674 44.175H177.937C178.014 46.3513 178.395 48.184 179.083 49.6731C179.808 51.1239 180.839 52.2312 182.175 52.9948C183.512 53.7203 185.058 54.083 186.814 54.083C188.914 54.083 190.671 53.6057 192.083 52.6512C193.496 51.6967 194.393 50.4176 194.775 48.814H200.502C200.235 50.8376 199.471 52.5939 198.211 54.083C196.951 55.5721 195.329 56.7175 193.343 57.5193C191.396 58.2829 189.22 58.6648 186.814 58.6648ZM177.994 40.9105L177.422 40.2232H195.291L194.718 40.9105C194.756 38.8487 194.432 37.1687 193.744 35.8705C193.095 34.5342 192.16 33.5415 190.938 32.8924C189.716 32.2433 188.265 31.9188 186.585 31.9188C184.905 31.9188 183.435 32.2624 182.175 32.9497C180.915 33.6369 179.923 34.6487 179.197 35.9851C178.472 37.3214 178.071 38.9632 177.994 40.9105Z" fill="white"/>
<path d="M153.493 58.1491L141.982 27.8523H148.453L155.097 46.8093L156.987 53.0519H157.216L159.106 46.8666L165.692 27.8523H172.164L160.767 58.1491H153.493Z" fill="white"/>
<path d="M128.255 58.6648C125.162 58.6648 122.509 58.0348 120.294 56.7748C118.079 55.4766 116.38 53.663 115.197 51.3339C114.051 49.0049 113.479 46.2749 113.479 43.1441C113.479 39.9368 114.051 37.1496 115.197 34.7824C116.38 32.4151 118.06 30.6015 120.237 29.3415C122.413 28.0434 125.009 27.3943 128.026 27.3943C131.309 27.3943 134.039 28.1006 136.216 29.5133C138.392 30.9261 139.976 32.8924 140.969 35.4124C141.962 37.9323 142.344 40.8532 142.115 44.175H119.378C119.454 46.3513 119.836 48.184 120.523 49.6731C121.249 51.1239 122.279 52.2312 123.616 52.9948C124.952 53.7203 126.498 54.083 128.255 54.083C130.355 54.083 132.111 53.6057 133.524 52.6512C134.937 51.6967 135.834 50.4176 136.216 48.814H141.943C141.676 50.8376 140.912 52.5939 139.652 54.083C138.392 55.5721 136.769 56.7175 134.784 57.5193C132.837 58.2829 130.66 58.6648 128.255 58.6648ZM119.435 40.9105L118.862 40.2232H136.731L136.158 40.9105C136.197 38.8487 135.872 37.1687 135.185 35.8705C134.536 34.5342 133.6 33.5415 132.378 32.8924C131.157 32.2433 129.706 31.9188 128.026 31.9188C126.346 31.9188 124.876 32.2624 123.616 32.9497C122.356 33.6369 121.363 34.6487 120.638 35.9851C119.912 37.3214 119.511 38.9632 119.435 40.9105Z" fill="white"/>
<path d="M13.2493 45.3638C13.2021 46.0904 13.176 46.8235 13.176 47.562C13.1761 55.0911 15.668 62.0379 19.8704 67.6245L11.8821 73.6245C8.45976 69.0675 5.96799 63.8797 4.55005 58.3599C3.34957 53.6862 2.93914 48.8506 3.32837 44.0532L13.2493 45.3638ZM75.3167 42.939C75.5571 44.4446 75.6848 45.9887 75.6848 47.562C75.6847 55.9335 72.1468 63.4773 66.4875 68.7866L57.9612 59.6929C61.2044 56.6548 63.2327 52.335 63.2327 47.5405C63.2327 46.9468 63.2005 46.3604 63.1399 45.7827L75.3167 42.939ZM93.1458 38.772C93.6965 41.6878 93.9766 44.6557 93.9719 47.6372C93.9621 53.8603 92.7258 60.0215 90.3352 65.7671L77.4348 60.3979C78.9764 56.6965 79.8725 52.6582 79.9797 48.4243L79.9924 47.562C79.9924 45.6519 79.8287 43.7791 79.5208 41.9565L93.1458 38.772ZM29.9319 47.5679C29.9379 51.3156 31.1833 54.7725 33.2786 57.5522L23.3127 65.0376C19.6527 60.1712 17.4827 54.1198 17.4827 47.562C17.4827 47.0143 17.4977 46.4694 17.5276 45.9292L29.9319 47.5679ZM37.718 33.4448C34.1963 35.6641 31.5644 39.166 30.4788 43.2954L18.0823 41.6577C19.8387 33.1362 25.3205 25.9753 32.7502 21.9536L37.718 33.4448ZM46.5833 18.4614C59.5814 18.4617 70.5886 26.9858 74.3235 38.7476L62.137 41.5923C59.7425 35.3346 53.6819 30.8911 46.5823 30.8911C44.8578 30.8911 43.1945 31.1525 41.6301 31.6392L36.6809 20.1909C39.7717 19.0726 43.1066 18.4615 46.5833 18.4614ZM31.0364 17.9868C22.248 22.6161 15.7736 31.0467 13.802 41.0923L0.493408 39.3335C1.71532 32.4906 4.44497 25.9958 8.49829 20.3276C12.9486 14.1046 18.8549 9.06546 25.7024 5.65381L31.0364 17.9868ZM64.7883 3.81104C70.5334 6.20154 75.7507 9.70098 80.1438 14.1079C84.5371 18.5151 88.0195 23.7446 90.3918 29.4976C91.0776 31.1605 91.6616 32.8593 92.1526 34.5825L78.5305 37.7651C75.609 28.2285 68.5324 20.5119 59.4143 16.7144L64.7883 3.81104Z" fill="white"/>
</svg>
