<svg width="94" height="77" viewBox="0 0 94 77" fill="none" xmlns="http://www.w3.org/2000/svg">
<path d="M13.2493 45.3638C13.2021 46.0904 13.176 46.8235 13.176 47.562C13.1761 55.0911 15.668 62.0379 19.8704 67.6245L11.8821 73.6245C8.45976 69.0675 5.96799 63.8797 4.55005 58.3599C3.34957 53.6862 2.93914 48.8506 3.32837 44.0532L13.2493 45.3638ZM75.3167 42.939C75.5571 44.4446 75.6848 45.9887 75.6848 47.562C75.6847 55.9335 72.1468 63.4773 66.4875 68.7866L57.9612 59.6929C61.2044 56.6548 63.2327 52.335 63.2327 47.5405C63.2327 46.9468 63.2005 46.3604 63.1399 45.7827L75.3167 42.939ZM93.1458 38.772C93.6965 41.6878 93.9766 44.6557 93.9719 47.6372C93.9621 53.8603 92.7258 60.0215 90.3352 65.7671L77.4348 60.3979C78.9764 56.6965 79.8725 52.6582 79.9797 48.4243L79.9924 47.562C79.9924 45.6519 79.8287 43.7791 79.5208 41.9565L93.1458 38.772ZM29.9319 47.5679C29.9379 51.3156 31.1833 54.7725 33.2786 57.5522L23.3127 65.0376C19.6527 60.1712 17.4827 54.1198 17.4827 47.562C17.4827 47.0143 17.4977 46.4694 17.5276 45.9292L29.9319 47.5679ZM37.718 33.4448C34.1963 35.6641 31.5644 39.166 30.4788 43.2954L18.0823 41.6577C19.8387 33.1362 25.3205 25.9753 32.7502 21.9536L37.718 33.4448ZM46.5833 18.4614C59.5814 18.4617 70.5886 26.9858 74.3235 38.7476L62.137 41.5923C59.7425 35.3346 53.6819 30.8911 46.5823 30.8911C44.8578 30.8911 43.1945 31.1525 41.6301 31.6392L36.6809 20.1909C39.7717 19.0726 43.1066 18.4615 46.5833 18.4614ZM31.0364 17.9868C22.248 22.6161 15.7736 31.0467 13.802 41.0923L0.493408 39.3335C1.71532 32.4906 4.44497 25.9958 8.49829 20.3276C12.9486 14.1046 18.8549 9.06546 25.7024 5.65381L31.0364 17.9868ZM64.7883 3.81104C70.5334 6.20154 75.7507 9.70098 80.1438 14.1079C84.5371 18.5151 88.0195 23.7446 90.3918 29.4976C91.0776 31.1605 91.6616 32.8593 92.1526 34.5825L78.5305 37.7651C75.609 28.2285 68.5324 20.5119 59.4143 16.7144L64.7883 3.81104Z" fill="#fff"/>
</svg>
